<svg xmlns="http://www.w3.org/2000/svg" viewBox="0 0 239.4 55.61"><title>Objeto inteligente vectorial</title><path d="M217.06,5.41a1.94,1.94,0,0,1,1.19-.49h26a.7.7,0,0,1,.7.7v26a1.94,1.94,0,0,1-.49,1.19l-4.36,4.36c-.27.27-.49.18-.49-.2V11a.7.7,0,0,0-.7-.7h-26c-.38,0-.48-.22-.2-.49Z" transform="translate(-5.56 -4.91)" fill="#bc3087"/><path d="M206.27,16.19a1.94,1.94,0,0,1,1.19-.49h26a.7.7,0,0,1,.7.7v26a1.94,1.94,0,0,1-.49,1.19L229.32,48c-.27.27-.49.18-.49-.2v-26a.7.7,0,0,0-.7-.7h-26c-.38,0-.48-.22-.2-.49Z" transform="translate(-5.56 -4.91)" fill="#bc3087"/><path d="M27.95,31.71q3.39,2.33,3.33,7.52V53.39A5.61,5.61,0,0,1,27.74,59q-3.54,1.56-10.09,1.56A15.85,15.85,0,0,1,9,58.34Q5.56,56.16,5.56,51q0-4.84,2.8-7.26t7.94-2.42a17,17,0,0,1,8.85,2.12V40.65q0-6-7.26-6a17.61,17.61,0,0,0-5.19.8,12.35,12.35,0,0,0-4.31,2.21V31.85a15.27,15.27,0,0,1,4.81-1.77,29.7,29.7,0,0,1,6.52-.71A14.19,14.19,0,0,1,27.95,31.71ZM23.61,55.16A2.07,2.07,0,0,0,25.15,53V47.31A16.52,16.52,0,0,0,18.54,46a9.11,9.11,0,0,0-5.1,1.18,4,4,0,0,0-1.74,3.54,4.1,4.1,0,0,0,2,3.72,8.65,8.65,0,0,0,4.69,1.24A18,18,0,0,0,23.61,55.16Z" transform="translate(-5.56 -4.91)" fill="#fff"/><path d="M42.79,58.23A8.13,8.13,0,0,1,40.48,52V35.16H35.71V30h4.78V21.77h6.37V30h7.2v5.13h-7.2V50.79a5.13,5.13,0,0,0,.77,3.16,3.27,3.27,0,0,0,2.71,1,7.94,7.94,0,0,0,2-.27A6.84,6.84,0,0,0,54.05,54v5.49a11.71,11.71,0,0,1-4.9.94A8.89,8.89,0,0,1,42.79,58.23Z" transform="translate(-5.56 -4.91)" fill="#fff"/><path d="M59.78,32.74a26.2,26.2,0,0,1,5.6-2.18,27.33,27.33,0,0,1,7.85-1.18,9.49,9.49,0,0,1,4,.77v5a28.53,28.53,0,0,0-4-.24,43.12,43.12,0,0,0-7.32.59V59.64H59.78Z" transform="translate(-5.56 -4.91)" fill="#fff"/><path d="M82,30.2h6.19l.06,29.44H82Z" transform="translate(-5.56 -4.91)" fill="#fff"/><path d="M102.17,30.23a33.26,33.26,0,0,1,7.29-.86q6.19,0,9.14,2.6t2.95,8.08V59.64h-6.19V40.88q0-6.19-7-6.19a18.6,18.6,0,0,0-6.43,1.12V59.64H95.7V32.44A27.53,27.53,0,0,1,102.17,30.23Z" transform="translate(-5.56 -4.91)" fill="#fff"/><path d="M129,30.2h6.19l.06,29.44H129Z" transform="translate(-5.56 -4.91)" fill="#fff"/><path d="M146.12,57.49q-3.45-3-3.45-8.88V30h6.19v17.7q0,3.78,1.68,5.58t5.22,1.8q3.54,0,5.22-1.8t1.68-5.58V30h6V48.61q0,5.84-3.36,8.88t-9.5,3Q149.57,60.53,146.12,57.49Z" transform="translate(-5.56 -4.91)" fill="#fff"/><path d="M217.21,32q2.86,2.6,2.86,8.08V59.64h-6.19V40.88q0-6.19-7-6.19a10.73,10.73,0,0,0-5.72,1.59,15.2,15.2,0,0,1,.41,3.78V59.64h-6.19V40.88q0-6.19-7-6.19a18.1,18.1,0,0,0-6.25,1.12V59.64h-6.19V32.44a27.53,27.53,0,0,1,6.46-2.21,33.26,33.26,0,0,1,7.29-.86q5.78,0,8.61,2.24a23.09,23.09,0,0,1,9.91-2.24Q214.35,29.38,217.21,32Z" transform="translate(-5.56 -4.91)" fill="#fff"/><rect x="76.28" y="16.87" width="6.61" height="5.6" rx="0.7" ry="0.7" fill="#bc3087"/><rect x="123.24" y="16.87" width="6.61" height="5.6" rx="0.7" ry="0.7" fill="#bc3087"/></svg>